<svg id="svg" version="1.1" xmlns="http://www.w3.org/2000/svg" xmlns:xlink="http://www.w3.org/1999/xlink" width="400" height="419.04761904761904" viewBox="0, 0, 400,419.04761904761904"><g id="svgg"><path id="path0" d="M271.800 19.850 C 265.515 21.088,263.116 21.826,259.559 23.618 C 249.265 28.801,242.123 37.786,239.322 49.074 C 238.595 52.003,237.974 189.200,238.687 189.200 C 238.858 189.200,247.323 180.875,257.500 170.700 L 276.003 152.200 317.301 151.997 C 354.948 151.812,358.837 151.732,361.276 151.094 C 377.359 146.885,388.421 133.858,389.994 117.275 C 390.503 111.908,390.508 60.100,390.000 54.466 C 388.395 36.659,375.403 22.846,357.600 20.019 C 355.146 19.629,273.735 19.469,271.800 19.850 M146.600 133.840 C 145.940 133.938,143.532 134.299,141.249 134.642 C 110.192 139.307,86.412 167.564,86.415 199.800 C 86.419 249.498,139.222 281.544,183.180 258.527 C 234.995 231.397,228.895 155.574,173.400 136.966 C 166.159 134.538,152.572 132.953,146.600 133.840 M145.600 304.667 C 126.037 305.125,104.322 308.333,88.965 313.033 C 86.344 313.835,83.576 314.670,82.813 314.889 C 56.442 322.436,26.303 343.516,12.390 364.144 L 10.000 367.688 10.000 383.236 L 10.000 398.785 10.900 399.002 C 11.395 399.121,75.520 399.169,153.400 399.109 L 295.000 399.000 295.105 383.358 L 295.209 367.717 293.271 364.758 C 277.895 341.287,247.344 321.390,212.000 311.828 C 195.125 307.262,167.049 303.853,151.600 304.494 C 150.610 304.535,147.910 304.613,145.600 304.667 " stroke="none" fill="#040404" fill-rule="evenodd"></path><path id="path1" d="M0.000 209.400 L 0.000 418.800 200.000 418.800 L 400.000 418.800 400.000 209.400 L 400.000 0.000 200.000 0.000 L 0.000 0.000 0.000 209.400 M361.741 20.335 C 378.345 25.118,388.998 37.868,390.371 54.600 C 391.111 63.627,390.550 118.523,389.675 122.601 C 387.112 134.552,377.999 145.377,366.856 149.707 C 360.110 152.329,363.762 152.136,318.200 152.284 L 276.600 152.420 257.400 171.510 L 238.200 190.600 238.092 180.000 C 238.033 174.170,238.039 142.760,238.106 110.200 L 238.227 51.000 239.148 47.800 C 243.277 33.455,254.143 23.119,268.200 20.166 L 272.600 19.242 315.600 19.336 L 358.600 19.430 361.741 20.335 M160.810 133.610 C 214.238 140.075,238.207 204.622,202.024 244.596 C 167.974 282.212,105.640 269.168,89.269 221.000 C 73.593 174.879,112.194 127.727,160.810 133.610 M167.000 304.395 C 170.740 304.606,175.330 304.963,177.200 305.188 C 179.070 305.412,182.921 305.875,185.758 306.216 C 191.732 306.935,204.438 309.276,208.800 310.463 C 217.085 312.717,228.442 316.320,231.726 317.737 C 239.798 321.218,242.515 322.475,246.775 324.698 C 256.011 329.518,265.550 335.694,271.589 340.763 C 272.792 341.773,274.311 343.050,274.964 343.600 C 281.933 349.473,291.509 360.425,294.735 366.211 C 295.613 367.787,295.620 367.934,295.510 383.600 L 295.400 399.400 153.400 399.509 C 75.300 399.569,10.995 399.521,10.500 399.402 L 9.600 399.185 9.600 383.289 L 9.600 367.393 11.275 364.797 C 17.640 354.932,31.901 341.032,43.200 333.679 C 45.070 332.462,47.320 330.984,48.200 330.394 C 61.142 321.720,82.143 313.586,104.000 308.783 C 121.612 304.912,146.030 303.211,167.000 304.395 " stroke="none" fill="#ffffff" fill-rule="evenodd"></path><path id="path2" d="M293.531 19.500 C 305.262 19.559,324.342 19.559,335.931 19.500 C 347.519 19.441,337.920 19.393,314.600 19.393 C 291.280 19.393,281.799 19.441,293.531 19.500 M379.200 30.600 C 380.617 32.030,381.867 33.200,381.977 33.200 C 382.087 33.200,381.017 32.030,379.600 30.600 C 378.183 29.170,376.933 28.000,376.823 28.000 C 376.713 28.000,377.783 29.170,379.200 30.600 M238.101 54.600 C 238.105 55.480,238.187 55.793,238.283 55.295 C 238.379 54.798,238.375 54.078,238.275 53.695 C 238.175 53.313,238.096 53.720,238.101 54.600 M390.554 62.000 C 390.554 64.750,390.618 65.875,390.696 64.500 C 390.774 63.125,390.774 60.875,390.696 59.500 C 390.618 58.125,390.554 59.250,390.554 62.000 M390.555 81.000 C 390.556 83.860,390.620 84.978,390.697 83.483 C 390.774 81.989,390.774 79.649,390.696 78.283 C 390.618 76.918,390.555 78.140,390.555 81.000 M390.554 100.000 C 390.554 102.750,390.618 103.875,390.696 102.500 C 390.774 101.125,390.774 98.875,390.696 97.500 C 390.618 96.125,390.554 97.250,390.554 100.000 M385.941 132.023 C 385.364 133.105,385.054 133.890,385.252 133.768 C 385.681 133.503,387.314 130.380,387.123 130.189 C 387.050 130.116,386.518 130.942,385.941 132.023 M147.105 133.483 C 147.602 133.579,148.322 133.575,148.705 133.475 C 149.087 133.375,148.680 133.296,147.800 133.301 C 146.920 133.305,146.607 133.387,147.105 133.483 M156.705 133.483 C 157.202 133.579,157.922 133.575,158.305 133.475 C 158.687 133.375,158.280 133.296,157.400 133.301 C 156.520 133.305,156.207 133.387,156.705 133.483 M369.200 148.400 C 368.430 148.822,367.944 149.174,368.120 149.183 C 368.544 149.205,370.800 148.032,370.800 147.790 C 370.800 147.528,370.777 147.537,369.200 148.400 M257.398 171.300 L 238.600 190.200 257.500 171.402 C 267.895 161.062,276.400 152.557,276.400 152.502 C 276.400 152.220,274.871 153.733,257.398 171.300 M102.378 155.900 L 101.000 157.400 102.500 156.022 C 103.896 154.738,104.184 154.400,103.878 154.400 C 103.812 154.400,103.137 155.075,102.378 155.900 M91.472 172.619 C 90.532 174.589,90.664 174.924,91.647 173.062 C 92.093 172.216,92.387 171.454,92.301 171.367 C 92.214 171.281,91.841 171.844,91.472 172.619 M212.828 171.400 C 212.828 171.620,213.086 172.250,213.400 172.800 C 213.714 173.350,213.972 173.620,213.972 173.400 C 213.972 173.180,213.714 172.550,213.400 172.000 C 213.086 171.450,212.828 171.180,212.828 171.400 M86.101 193.000 C 86.105 193.880,86.187 194.193,86.283 193.695 C 86.379 193.198,86.375 192.478,86.275 192.095 C 86.175 191.713,86.096 192.120,86.101 193.000 M218.893 193.200 C 218.893 193.970,218.975 194.285,219.076 193.900 C 219.176 193.515,219.176 192.885,219.076 192.500 C 218.975 192.115,218.893 192.430,218.893 193.200 M85.737 199.800 C 85.739 201.560,85.809 202.230,85.893 201.289 C 85.978 200.349,85.977 198.909,85.891 198.089 C 85.805 197.270,85.736 198.040,85.737 199.800 M219.320 198.800 C 219.320 200.010,219.395 200.505,219.487 199.900 C 219.578 199.295,219.578 198.305,219.487 197.700 C 219.395 197.095,219.320 197.590,219.320 198.800 M86.101 206.200 C 86.105 207.080,86.187 207.393,86.283 206.895 C 86.379 206.398,86.375 205.678,86.275 205.295 C 86.175 204.913,86.096 205.320,86.101 206.200 M218.893 206.400 C 218.893 207.170,218.975 207.485,219.076 207.100 C 219.176 206.715,219.176 206.085,219.076 205.700 C 218.975 205.315,218.893 205.630,218.893 206.400 M86.493 209.600 C 86.493 210.370,86.575 210.685,86.676 210.300 C 86.776 209.915,86.776 209.285,86.676 208.900 C 86.575 208.515,86.493 208.830,86.493 209.600 M91.228 226.200 C 91.228 226.420,91.486 227.050,91.800 227.600 C 92.114 228.150,92.372 228.420,92.372 228.200 C 92.372 227.980,92.114 227.350,91.800 226.800 C 91.486 226.250,91.228 225.980,91.228 226.200 M100.400 241.725 C 100.400 241.794,100.985 242.379,101.700 243.025 L 103.000 244.200 101.825 242.900 C 100.730 241.688,100.400 241.416,100.400 241.725 M104.800 246.600 C 105.995 247.810,107.063 248.800,107.173 248.800 C 107.283 248.800,106.395 247.810,105.200 246.600 C 104.005 245.390,102.937 244.400,102.827 244.400 C 102.717 244.400,103.605 245.390,104.800 246.600 M109.000 250.366 C 109.778 251.261,112.000 252.998,112.000 252.712 C 112.000 252.634,111.145 251.867,110.100 251.008 C 109.055 250.149,108.560 249.860,109.000 250.366 M120.400 258.179 C 120.400 258.289,120.940 258.659,121.600 259.000 C 122.260 259.341,122.800 259.531,122.800 259.421 C 122.800 259.311,122.260 258.941,121.600 258.600 C 120.940 258.259,120.400 258.069,120.400 258.179 M182.300 259.227 C 181.475 259.663,180.800 260.108,180.800 260.218 C 180.800 260.327,181.520 260.049,182.400 259.600 C 183.280 259.151,184.000 258.697,184.000 258.592 C 184.000 258.330,183.997 258.331,182.300 259.227 M135.400 264.400 C 135.840 264.589,136.470 264.744,136.800 264.744 C 137.178 264.744,137.104 264.617,136.600 264.400 C 136.160 264.211,135.530 264.056,135.200 264.056 C 134.822 264.056,134.896 264.183,135.400 264.400 M147.505 266.283 C 148.002 266.379,148.722 266.375,149.105 266.275 C 149.487 266.175,149.080 266.096,148.200 266.101 C 147.320 266.105,147.007 266.187,147.505 266.283 M157.105 266.283 C 157.602 266.379,158.322 266.375,158.705 266.275 C 159.087 266.175,158.680 266.096,157.800 266.101 C 156.920 266.105,156.607 266.187,157.105 266.283 M143.900 304.297 C 145.495 304.373,148.105 304.373,149.700 304.297 C 151.295 304.221,149.990 304.159,146.800 304.159 C 143.610 304.159,142.305 304.221,143.900 304.297 M156.100 304.296 C 157.365 304.375,159.435 304.375,160.700 304.296 C 161.965 304.216,160.930 304.151,158.400 304.151 C 155.870 304.151,154.835 304.216,156.100 304.296 M135.507 304.690 C 136.226 304.779,137.306 304.777,137.907 304.686 C 138.508 304.595,137.920 304.522,136.600 304.524 C 135.280 304.526,134.788 304.601,135.507 304.690 M167.100 304.689 C 167.815 304.778,168.985 304.778,169.700 304.689 C 170.415 304.601,169.830 304.528,168.400 304.528 C 166.970 304.528,166.385 304.601,167.100 304.689 M129.705 305.087 C 130.314 305.179,131.214 305.177,131.705 305.082 C 132.197 304.987,131.700 304.911,130.600 304.914 C 129.500 304.917,129.097 304.995,129.705 305.087 M173.100 305.082 C 173.595 305.178,174.405 305.178,174.900 305.082 C 175.395 304.987,174.990 304.909,174.000 304.909 C 173.010 304.909,172.605 304.987,173.100 305.082 M126.305 305.483 C 126.802 305.579,127.522 305.575,127.905 305.475 C 128.287 305.375,127.880 305.296,127.000 305.301 C 126.120 305.305,125.807 305.387,126.305 305.483 M89.000 312.400 C 88.496 312.617,88.422 312.744,88.800 312.744 C 89.130 312.744,89.760 312.589,90.200 312.400 C 90.704 312.183,90.778 312.056,90.400 312.056 C 90.070 312.056,89.440 312.211,89.000 312.400 M241.200 322.200 C 241.750 322.514,242.380 322.772,242.600 322.772 C 242.820 322.772,242.550 322.514,242.000 322.200 C 241.450 321.886,240.820 321.628,240.600 321.628 C 240.380 321.628,240.650 321.886,241.200 322.200 M57.100 325.227 C 56.275 325.663,55.600 326.108,55.600 326.218 C 55.600 326.327,56.320 326.049,57.200 325.600 C 58.080 325.151,58.800 324.697,58.800 324.592 C 58.800 324.330,58.797 324.331,57.100 325.227 M40.600 335.435 L 39.400 336.466 40.700 335.606 C 41.415 335.133,42.000 334.668,42.000 334.573 C 42.000 334.273,41.831 334.378,40.600 335.435 M30.175 343.700 L 29.000 345.000 30.300 343.825 C 31.512 342.730,31.784 342.400,31.475 342.400 C 31.406 342.400,30.821 342.985,30.175 343.700 M274.998 343.937 C 275.434 344.452,276.153 345.059,276.596 345.286 C 277.445 345.721,277.321 345.587,275.403 343.994 C 274.248 343.035,274.234 343.033,274.998 343.937 M280.800 349.400 C 282.660 351.270,284.272 352.800,284.382 352.800 C 284.492 352.800,283.060 351.270,281.200 349.400 C 279.340 347.530,277.728 346.000,277.618 346.000 C 277.508 346.000,278.940 347.530,280.800 349.400 M13.523 361.500 C 12.818 362.321,12.290 363.200,12.501 363.200 C 12.583 363.200,13.049 362.660,13.537 362.000 C 14.501 360.696,14.492 360.372,13.523 361.500 M9.782 383.200 C 9.782 392.110,9.835 395.755,9.900 391.300 C 9.964 386.845,9.964 379.555,9.900 375.100 C 9.835 370.645,9.782 374.290,9.782 383.200 M295.295 383.099 L 295.200 399.199 152.700 399.300 L 10.200 399.401 152.713 399.501 C 266.550 399.580,295.264 399.499,295.417 399.099 C 295.523 398.824,295.560 391.489,295.500 382.799 L 295.390 367.000 295.295 383.099 " stroke="none" fill="#959595" fill-rule="evenodd"></path><path id="path3" d="M379.000 30.800 C 380.528 32.340,381.869 33.600,381.979 33.600 C 382.089 33.600,380.928 32.340,379.400 30.800 C 377.872 29.260,376.531 28.000,376.421 28.000 C 376.311 28.000,377.472 29.260,379.000 30.800 M238.493 54.000 C 238.493 54.770,238.575 55.085,238.676 54.700 C 238.776 54.315,238.776 53.685,238.676 53.300 C 238.575 52.915,238.493 53.230,238.493 54.000 M390.101 55.800 C 390.105 56.680,390.187 56.993,390.283 56.495 C 390.379 55.998,390.375 55.278,390.275 54.895 C 390.175 54.513,390.096 54.920,390.101 55.800 M238.153 71.400 C 238.153 74.040,238.218 75.068,238.297 73.684 C 238.375 72.301,238.374 70.141,238.295 68.884 C 238.216 67.628,238.152 68.760,238.153 71.400 M238.154 90.400 C 238.154 93.150,238.218 94.275,238.296 92.900 C 238.374 91.525,238.374 89.275,238.296 87.900 C 238.218 86.525,238.154 87.650,238.154 90.400 M238.154 109.600 C 238.154 112.350,238.218 113.475,238.296 112.100 C 238.374 110.725,238.374 108.475,238.296 107.100 C 238.218 105.725,238.154 106.850,238.154 109.600 M390.093 116.000 C 390.093 116.770,390.175 117.085,390.276 116.700 C 390.376 116.315,390.376 115.685,390.276 115.300 C 390.175 114.915,390.093 115.230,390.093 116.000 M238.154 128.400 C 238.154 131.150,238.218 132.275,238.296 130.900 C 238.374 129.525,238.374 127.275,238.296 125.900 C 238.218 124.525,238.154 125.650,238.154 128.400 M151.905 133.483 C 152.402 133.579,153.122 133.575,153.505 133.475 C 153.887 133.375,153.480 133.296,152.600 133.301 C 151.720 133.305,151.407 133.387,151.905 133.483 M145.505 133.883 C 146.002 133.979,146.722 133.975,147.105 133.875 C 147.487 133.775,147.080 133.696,146.200 133.701 C 145.320 133.705,145.007 133.787,145.505 133.883 M157.905 133.883 C 158.402 133.979,159.122 133.975,159.505 133.875 C 159.887 133.775,159.480 133.696,158.600 133.701 C 157.720 133.705,157.407 133.787,157.905 133.883 M238.154 147.600 C 238.154 150.350,238.218 151.475,238.296 150.100 C 238.374 148.725,238.374 146.475,238.296 145.100 C 238.218 143.725,238.154 144.850,238.154 147.600 M296.530 152.300 C 307.492 152.359,325.312 152.359,336.130 152.300 C 346.949 152.241,337.980 152.192,316.200 152.192 C 294.420 152.192,285.569 152.241,296.530 152.300 M257.400 170.800 C 247.282 180.920,238.868 189.200,238.702 189.200 C 238.536 189.200,238.362 187.265,238.316 184.900 L 238.231 180.600 238.101 184.765 C 238.020 187.344,238.132 189.092,238.395 189.355 C 238.694 189.654,244.332 184.267,257.509 171.090 C 267.789 160.810,276.108 152.400,275.998 152.400 C 275.887 152.400,267.518 160.680,257.400 170.800 M238.153 166.600 C 238.153 169.240,238.218 170.268,238.297 168.884 C 238.375 167.501,238.374 165.341,238.295 164.084 C 238.216 162.828,238.152 163.960,238.153 166.600 M86.151 199.600 C 86.151 202.130,86.216 203.165,86.296 201.900 C 86.375 200.635,86.375 198.565,86.296 197.300 C 86.216 196.035,86.151 197.070,86.151 199.600 M218.953 199.800 C 218.953 202.440,219.018 203.468,219.097 202.084 C 219.175 200.701,219.174 198.541,219.095 197.284 C 219.016 196.028,218.952 197.160,218.953 199.800 M104.000 245.325 C 104.000 245.394,104.585 245.979,105.300 246.625 L 106.600 247.800 105.425 246.500 C 104.330 245.288,104.000 245.016,104.000 245.325 M152.305 266.283 C 152.802 266.379,153.522 266.375,153.905 266.275 C 154.287 266.175,153.880 266.096,153.000 266.101 C 152.120 266.105,151.807 266.187,152.305 266.283 M142.716 304.697 C 144.099 304.775,146.259 304.774,147.516 304.695 C 148.772 304.616,147.640 304.552,145.000 304.553 C 142.360 304.553,141.332 304.618,142.716 304.697 M158.713 304.695 C 159.876 304.776,161.676 304.776,162.713 304.693 C 163.751 304.611,162.800 304.545,160.600 304.546 C 158.400 304.547,157.551 304.614,158.713 304.695 M134.300 305.082 C 134.795 305.178,135.605 305.178,136.100 305.082 C 136.595 304.987,136.190 304.909,135.200 304.909 C 134.210 304.909,133.805 304.987,134.300 305.082 M169.100 305.082 C 169.595 305.178,170.405 305.178,170.900 305.082 C 171.395 304.987,170.990 304.909,170.000 304.909 C 169.010 304.909,168.605 304.987,169.100 305.082 M244.033 323.749 C 244.445 324.117,246.800 325.200,246.800 325.021 C 246.800 324.790,244.582 323.600,244.153 323.600 C 243.996 323.600,243.942 323.667,244.033 323.749 M23.992 349.900 L 20.200 353.800 24.100 350.008 C 26.245 347.922,28.000 346.167,28.000 346.108 C 28.000 345.818,27.514 346.278,23.992 349.900 M280.800 349.800 C 282.881 351.890,284.674 353.600,284.784 353.600 C 284.894 353.600,283.281 351.890,281.200 349.800 C 279.119 347.710,277.326 346.000,277.216 346.000 C 277.106 346.000,278.719 347.710,280.800 349.800 M285.200 354.525 C 285.200 354.594,285.785 355.179,286.500 355.825 L 287.800 357.000 286.625 355.700 C 285.530 354.488,285.200 354.216,285.200 354.525 " stroke="none" fill="#6c6c6c" fill-rule="evenodd"></path><path id="path4" d="M238.158 61.400 C 238.158 64.480,238.221 65.687,238.297 64.082 C 238.373 62.478,238.373 59.958,238.296 58.482 C 238.219 57.007,238.157 58.320,238.158 61.400 M238.154 80.800 C 238.154 83.550,238.218 84.675,238.296 83.300 C 238.374 81.925,238.374 79.675,238.296 78.300 C 238.218 76.925,238.154 78.050,238.154 80.800 M238.154 100.000 C 238.154 102.750,238.218 103.875,238.296 102.500 C 238.374 101.125,238.374 98.875,238.296 97.500 C 238.218 96.125,238.154 97.250,238.154 100.000 M238.153 119.000 C 238.153 121.640,238.218 122.668,238.297 121.284 C 238.375 119.901,238.374 117.741,238.295 116.484 C 238.216 115.228,238.152 116.360,238.153 119.000 M238.154 138.000 C 238.154 140.750,238.218 141.875,238.296 140.500 C 238.374 139.125,238.374 136.875,238.296 135.500 C 238.218 134.125,238.154 135.250,238.154 138.000 M238.154 157.200 C 238.154 159.950,238.218 161.075,238.296 159.700 C 238.374 158.325,238.374 156.075,238.296 154.700 C 238.218 153.325,238.154 154.450,238.154 157.200 M238.154 176.000 C 238.154 178.750,238.218 179.875,238.296 178.500 C 238.374 177.125,238.374 174.875,238.296 173.500 C 238.218 172.125,238.154 173.250,238.154 176.000 M200.975 245.300 L 199.800 246.600 201.100 245.425 C 202.312 244.330,202.584 244.000,202.275 244.000 C 202.206 244.000,201.621 244.585,200.975 245.300 " stroke="none" fill="#747474" fill-rule="evenodd"></path></g></svg>